<svg id="Layer_1" data-name="Layer 1" xmlns="http://www.w3.org/2000/svg" xmlns:xlink="http://www.w3.org/1999/xlink" viewBox="0 0 522.84 352.522"><defs><linearGradient id="linear-gradient" x1="107.654" y1="226.08" x2="472.306" y2="226.08" gradientUnits="userSpaceOnUse"><stop offset="0" stop-color="#c2c2c2"/><stop offset="1" stop-color="#dedede"/></linearGradient><linearGradient id="linear-gradient-2" x1="272.87" y1="175.981" x2="293.502" y2="175.981" gradientUnits="userSpaceOnUse"><stop offset="0" stop-color="#046152"/><stop offset=".23" stop-color="#096852"/><stop offset=".569" stop-color="#167c53"/><stop offset=".779" stop-color="#208c54"/></linearGradient><linearGradient id="linear-gradient-3" x1="322.099" y1="177.784" x2="342.731" y2="177.784" xlink:href="#linear-gradient-2"/><linearGradient id="linear-gradient-4" x1="351.758" y1="276.891" x2="412.221" y2="276.891" xlink:href="#linear-gradient-2"/><linearGradient id="linear-gradient-5" x1="364.722" y1="330.075" x2="465.825" y2="330.075" gradientUnits="userSpaceOnUse"><stop offset="0" stop-color="#046152"/><stop offset=".134" stop-color="#076855"/><stop offset=".331" stop-color="#0f7c5b"/><stop offset=".568" stop-color="#1d9d67"/><stop offset=".779" stop-color="#2cc073"/></linearGradient><linearGradient id="linear-gradient-6" x1="360.11" y1="284.913" x2="470.437" y2="284.913" xlink:href="#linear-gradient-2"/><linearGradient id="linear-gradient-7" x1="143.255" y1="299.564" x2="278.687" y2="299.564" xlink:href="#linear-gradient"/><style>.cls-1{opacity:.2}.cls-2{fill:#dfe8ef}.cls-3{opacity:.18}.cls-4{fill:url(#linear-gradient)}.cls-5{fill:none}.cls-6{fill:#2cc073}.cls-7{fill:#fff}.cls-8{fill:#4b3c51}.cls-9{fill:url(#linear-gradient-2)}.cls-10{fill:#3e3244}.cls-11{fill:#e8a17e}.cls-12{fill:#d88d6c}.cls-13{fill:#161119}.cls-14{fill:#f27b53;opacity:.45}.cls-15{fill:url(#linear-gradient-3)}.cls-16,.cls-26{fill:#26476d}.cls-16{opacity:.07}.cls-17{fill:#07937c}.cls-18{fill:url(#linear-gradient-4)}.cls-19{fill:#345d95;opacity:.11}.cls-20{fill:url(#linear-gradient-5)}.cls-21{fill:url(#linear-gradient-6)}.cls-22{fill:#8bfce6}.cls-23{fill:#89e5d3}.cls-24{fill:#202338}.cls-25{fill:url(#linear-gradient-7)}.cls-26{opacity:.27}.cls-27{fill:#eaf3f9}</style></defs><g class="cls-1"><path class="cls-2" d="M85.882 352.522c-29.703-1.363-58.864-13.972-73.12-35.644-13.183-20.043-15.633-51.09-9.734-73.394 4.952-18.727 19.099-34.932 35.233-48.653 32.598-27.723 74.6-47.832 102.15-79.1 15.312-17.377 25.503-37.52 40.225-55.244C209.265 26.02 256.671 1.565 307.078.067S409.093 22.1 430.038 60.184c18.016 32.761 13.32 72.466 35.502 103.416 10.196 14.226 25.397 25.527 36.596 39.223 19.928 24.373 25.95 56.233 15.971 84.5s-35.764 52.39-68.387 63.983"/></g><g class="cls-3"><path class="cls-4" d="M412.408 349.808c20.717-.898 41.055-9.208 50.997-23.491 9.195-13.21 10.903-33.672 6.79-48.372-3.454-12.342-13.32-23.022-24.574-32.065-22.735-18.27-52.03-31.524-71.244-52.131-10.68-11.453-23.457-37.907-33.725-49.588-19.966-22.716-43.673-37.633-78.645-41.353-45.09-4.797-75.021 29.232-89.629 54.332-12.565 21.591-9.29 47.76-24.761 68.157-7.111 9.376-17.713 16.824-25.524 25.85-13.898 16.064-18.098 37.061-11.139 55.69s24.944 34.53 47.697 42.17"/></g><path class="cls-5" d="M99.2 332.174l-.652 5.06a5.667 5.667 0 004.05-1.596 1.535 1.535 0 00.29-1.577c-.413-1.18-2.08-1.69-3.688-1.887z"/><path class="cls-6" d="M126.275 323.565c-1.538-4.386-6.095-6.068-10.17-6.687-8.915 13.941-20.052 16.721-26.15 17.087l1.774 10.447h20.09l1.074-8.339c5.09-.091 9.598-1.834 12.012-4.813a7.766 7.766 0 001.37-7.695zm-5.228 4.569c-1.197 1.477-3.863 2.766-7.513 2.963l1.21-9.389c2.984.363 6.077 1.311 6.843 3.501a2.848 2.848 0 01-.54 2.925z"/><path class="cls-6" d="M116.105 316.878c-.242-.036-.487-.083-.724-.113l1.213-9.421a.93.93 0 00-.922-1.05H86.485a1.038 1.038 0 00-1.023 1.212l4.493 26.46c6.098-.367 17.235-3.147 26.15-17.088z"/><path class="cls-7" d="M102.71 302.381c-2.9-1.542-5.67-7.102-6.813-9.672a9.682 9.682 0 01-.209-8.163c1.07-2.122 3.12-3.584 4.398-5.588a9.07 9.07 0 001.115-7.063c-.87-3.344-3.614-6.01-4.242-9.409-.737-3.985 1.578-7.816 2.594-11.74a18.739 18.739 0 00-.522-11.006c2.831 1.681 4.524 4.72 6.087 7.617 1.426 2.646 2.895 5.476 2.688 8.474a19.69 19.69 0 01-1.579 5.423c-1.198 3.205-2.016 6.721-1.162 10.033 1.292 5.01 6.226 8.925 6.032 14.095-.115 3.062-2.1 5.78-4.493 7.695-1.559 1.248-3.36 2.289-4.453 3.96s-1.131 4.282.56 5.344"/><path class="cls-8" d="M281.119 150.875a67.542 67.542 0 00-4.968 15.955c-.865 5.355-1.163 10.813-2.494 16.072a69.266 69.266 0 01-5.25 13.359 2.873 2.873 0 00-.39 1.24 2.792 2.792 0 001.427 2.004 38.668 38.668 0 0036.952 4.4"/><ellipse class="cls-6" cx="278.333" cy="174.165" rx="10.316" ry="12.826"/><ellipse class="cls-9" cx="283.186" cy="175.981" rx="10.316" ry="12.826"/><path class="cls-10" d="M306.396 203.947l-21.526-45.16c-2.381 7.935-4.764 15.87-7.013 23.844a44.665 44.665 0 00-1.733 8.072 23.017 23.017 0 00.49 7.188 13.45 13.45 0 003.04 6.263 10.714 10.714 0 00.947.84 38.532 38.532 0 0025.795-1.047z"/><path class="cls-11" d="M301.872 202.393c.973 5.481 1.779 11.704-1.624 16.11-.746.966-1.717 1.91-1.771 3.129-.07 1.599 1.457 2.774 2.889 3.49a22.812 22.812 0 0018.014.933 2.921 2.921 0 001.296-.792c.729-.9.262-2.224-.186-3.292a39.698 39.698 0 01.317-31.024"/><path class="cls-12" d="M301.385 200.796a32.688 32.688 0 011.155 11.5.482.482 0 00.069.387c.125.133.342.08.514.019a16.026 16.026 0 003.651-1.678 16.297 16.297 0 005.034-5.667 16.815 16.815 0 001.742-8.72"/><path class="cls-11" d="M288.709 151.62c-3.908 4.364-4.82 10.577-5.334 16.412a67.51 67.51 0 00-.002 15.447 28.163 28.163 0 005.828 14.13 21.693 21.693 0 004.865 4.311 12.421 12.421 0 004.085 1.82c2.786.597 5.665-.201 8.375-1.08 6.176-2.002 12.535-4.708 16.347-9.964 4.967-6.847 8.252-24.865 9.542-33.226"/><path class="cls-12" d="M280.925 156.934a41.902 41.902 0 0020.475 9.595 71.948 71.948 0 0013.24.645 22.83 22.83 0 004.938-.482 9.04 9.04 0 005.576-3.755 6.098 6.098 0 00.089-6.513"/><path class="cls-8" d="M330.77 134.103c-11.01-5.323-26.952-4.221-34.963.364s-11.33 8.69-15.513 18.244c-.25.57-1.695 4.086-1.476 4.67a1.676 1.676 0 001.073 1.12c9.896 3.777 18.596 4.458 29.175 4.98a36.902 36.902 0 0010.526-.65c4.85 16.251 2.323 27.9-5.756 42.81 5.259 2.219 25.707 3.494 35.438-4.043a23.283 23.283 0 006.327-7.029c3.869-7.062 2.208-15.77.104-23.544a78.339 78.339 0 00-6.182-16.842c-4.367-8.106-10.3-16.432-18.753-20.08"/><path class="cls-10" d="M337.855 200.488a4.997 4.997 0 01-1.59-1.968c-.623-1.537-.082-3.269.395-4.857a25.822 25.822 0 001.333-8.28 12.19 12.19 0 00-2.853-7.747c-2.723-3.022-7-3.98-10.988-4.778l-2.512-.503c1.491 11.65-1.35 21.457-7.76 33.287 5.26 2.218 25.708 3.493 35.439-4.044.356-.276.694-.576 1.04-.866a14.536 14.536 0 01-1.838.928c-3.49 1.359-7.732 1.154-10.666-1.172z"/><path class="cls-13" d="M301.988 172.77a4.88 4.88 0 00-4.87-.042l-.529-.779a5.772 5.772 0 015.84-.009zM321.681 172.508l-2.459-.043v-.94h2.33l.129.983z"/><path class="cls-12" d="M298.818 174.466l-2.978 9.125 4.689.38"/><path class="cls-10" d="M308.119 167.209a5.714 5.714 0 01.592-.31q.181-.086.366-.163l-.135.056q.46-.193.936-.345a11.567 11.567 0 011.193-.311q.388-.08.782-.132l-.15.02a11.237 11.237 0 012.272-.073q.351.025.7.072l-.15-.02a11.34 11.34 0 012.253.546q.337.12.666.258l-.135-.057a13.31 13.31 0 012.33 1.286.564.564 0 00.83-.637.629.629 0 00-.26-.337 13.187 13.187 0 00-3.766-1.805 11.692 11.692 0 00-3.384-.46 12.087 12.087 0 00-2.784.364 11.965 11.965 0 00-1.954.681 6.447 6.447 0 00-.762.387l-.01.006a.59.59 0 00-.259.337.576.576 0 00.057.435.57.57 0 00.337.259.577.577 0 00.435-.057zM292.943 167.276a5.71 5.71 0 00-.526-.413q-.162-.117-.33-.226l.123.08q-.417-.274-.858-.51a11.567 11.567 0 00-1.116-.523q-.368-.15-.745-.273l.144.047a11.238 11.238 0 00-2.221-.485q-.35-.04-.702-.057l.15.008a11.34 11.34 0 00-2.313.127q-.353.055-.702.132l.143-.031c-.868.192.287.78-1.305.364a3.435 3.435 0 012.428-1.675 11.692 11.692 0 013.412.164 12.087 12.087 0 012.67.865 11.964 11.964 0 011.798 1.026 6.446 6.446 0 01.679.519l.008.007a.59.59 0 01.194.379.576.576 0 01-.135.417.57.57 0 01-.379.193.577.577 0 01-.417-.135zM308.412 173.452a4.792 4.792 0 011.647-1.384 4.226 4.226 0 014.677.879c.247.202.602-.15.353-.354a4.788 4.788 0 00-5.03-1.077 5.11 5.11 0 00-2.079 1.684c-.185.263.248.513.432.252zM285.045 172.609a4.792 4.792 0 011.648-1.385 4.226 4.226 0 014.676.88c.247.202.603-.15.354-.354a4.788 4.788 0 00-5.03-1.077 5.11 5.11 0 00-2.08 1.683c-.185.264.248.514.432.253z"/><circle class="cls-14" cx="315.585" cy="181.814" r="4.031"/><circle class="cls-14" cx="286.583" cy="180.247" r="3.397"/><path class="cls-13" d="M288.274 181.6a8.908 8.908 0 118.908-8.907 8.918 8.918 0 01-8.908 8.908zm0-16.788a7.881 7.881 0 107.88 7.88 7.891 7.891 0 00-7.88-7.88zM310.683 181.6a8.908 8.908 0 118.909-8.907 8.918 8.918 0 01-8.909 8.908zm0-16.788a7.881 7.881 0 107.882 7.88 7.891 7.891 0 00-7.882-7.88z"/><ellipse class="cls-13" cx="301.491" cy="198.68" rx="3.1" ry="2.424" transform="rotate(-5.513 301.491 198.68)"/><path class="cls-13" d="M307.102 199.16a30.888 30.888 0 01-4.193.121l.052-1.336c16.15.643 28.569-12.402 28.691-12.534l.976.915c-.116.125-10.864 11.419-25.526 12.834z"/><path class="cls-6" d="M279.15 162.22c1.29-9.05 6.034-19.02 13.804-24.137 6.959-4.583 16.268-4.874 23.938-1.933 6.608 2.534 10.983 8.182 13.139 14.766 1.836 5.607 2.083 11.37 2.51 17.196.14 1.921 3.153 1.936 3.011 0-.406-5.546-.633-11.07-2.15-16.461-1.977-7.018-6.025-13.463-12.583-16.989a30.506 30.506 0 00-26.208-.943c-6.555 3.007-11.348 8.868-14.39 15.275a44.02 44.02 0 00-3.975 12.425c-.27 1.895 2.631 2.714 2.904.8z"/><ellipse class="cls-15" cx="332.415" cy="177.784" rx="10.316" ry="12.826"/><ellipse class="cls-6" cx="334.039" cy="177.784" rx="9.8" ry="12.185"/><rect class="cls-16" x="350.974" y="78.579" width="62.806" height="42.08" rx="4.762"/><rect class="cls-7" x="349.498" y="77.166" width="62.806" height="42.08" rx="4.762"/><path class="cls-17" d="M385.161 84.868a7.413 7.413 0 013.024 2.54 6.28 6.28 0 011.101 3.602 6.444 6.444 0 01-.504 2.633 7.212 7.212 0 01-1.232 1.941 20.055 20.055 0 01-1.923 1.811 15.32 15.32 0 00-2.39 2.465 4.465 4.465 0 00-.783 2.688v.522a1.02 1.02 0 01-1.009 1.009h-1.38a1.02 1.02 0 01-1.01-1.009v-.783a6.24 6.24 0 01.524-2.633 7.226 7.226 0 011.25-1.923q.728-.784 1.96-1.904a15.546 15.546 0 002.334-2.37 3.974 3.974 0 00.766-2.447 3.29 3.29 0 00-1.494-2.837 6.099 6.099 0 00-3.584-1.046 5.45 5.45 0 00-3.361 1.008 5.315 5.315 0 00-1.866 3.1.99.99 0 01-.355.597.966.966 0 01-.616.224h-1.605a.852.852 0 01-.599-.243.652.652 0 01-.223-.579 7.682 7.682 0 014.014-6.198 9.264 9.264 0 014.611-1.082 10.01 10.01 0 014.35.914zm-2.632 25.297a.974.974 0 01-.71.299h-2.128a1.02 1.02 0 01-1.01-1.009v-2.128a1.02 1.02 0 011.01-1.008h2.128a1.017 1.017 0 011.007 1.008v2.128a.97.97 0 01-.297.71z"/><path class="cls-16" d="M279.812 39.252h-50.059a6.374 6.374 0 00-6.373 6.374V74.96a6.374 6.374 0 006.373 6.374h35.506l13.452 9.547v-9.547h1.101a6.374 6.374 0 006.374-6.374V45.626a6.374 6.374 0 00-6.374-6.374z"/><path class="cls-7" d="M278.308 37.886H228.25a6.374 6.374 0 00-6.373 6.374v29.333a6.374 6.374 0 006.373 6.374h35.506l13.452 9.547v-9.547h1.101a6.374 6.374 0 006.374-6.374V44.26a6.374 6.374 0 00-6.374-6.374z"/><path class="cls-16" d="M253.001 91.537h-32.52a4.14 4.14 0 00-4.14 4.14v19.056a4.14 4.14 0 004.14 4.14h23.066l8.739 6.203v-6.202h.715a4.14 4.14 0 004.141-4.141V95.678a4.14 4.14 0 00-4.14-4.141z"/><path class="cls-7" d="M252.024 90.65h-32.52a4.14 4.14 0 00-4.14 4.14v19.056a4.14 4.14 0 004.14 4.14h23.066l8.739 6.203v-6.203h.715a4.14 4.14 0 004.14-4.14V94.79a4.14 4.14 0 00-4.14-4.14z"/><rect class="cls-16" x="132.418" y="138.582" width="62.806" height="42.08" rx="4.762"/><rect class="cls-7" x="130.554" y="136.912" width="62.806" height="42.08" rx="4.762"/><path class="cls-17" d="M156.224 146.85c.447 4.763 5.532 4.01 5.532 4.01 3.105.456 2.641 7.252 2.641 7.252s-.33 6.805-3.467 6.896c0 0-4.963-1.34-5.962 3.338-1 4.679 1.822 7.073 6.42 6.757 0 0 6.371-.619 7.322-16.887.524-16.487-5.322-17.329-5.322-17.329-4.531-.849-7.612 1.2-7.164 5.963zM430.704 318.852a41.362 41.362 0 0012.024-6.532c1.955-1.43 3.866-2.92 5.784-4.397a430.16 430.16 0 006.258-4.895q5.898-4.72 11.544-9.742 5.666-5.04 11.062-10.371 5.394-5.329 10.504-10.936.62-.679 1.234-1.362c.291-.323-.185-.805-.477-.481q-5.034 5.593-10.353 10.92-5.317 5.325-10.906 10.369-5.587 5.041-11.43 9.788a422.27 422.27 0 01-12.126 9.455 47.932 47.932 0 01-11.72 6.993q-.78.294-1.577.538c-.416.128-.239.782.18.653z"/><path class="cls-17" d="M487.212 271.888a9.139 9.139 0 014.532-7.065c1.02-.572 2.418-.888 3.272-.09a2.198 2.198 0 01.372 2.4 5.313 5.313 0 01-1.633 1.968 19.907 19.907 0 01-6.68 3.651M484.442 275.338a5.471 5.471 0 01-2.034-3.724 6.952 6.952 0 01-.015-3.047 3.309 3.309 0 011.88-2.284.885.885 0 01.456-.074.86.86 0 01.397.21 2.882 2.882 0 01.935 1.988 6.909 6.909 0 01-.27 2.229 23.81 23.81 0 01-1.784 4.832M478.144 281.32a3.346 3.346 0 01-1.268-.943 6.893 6.893 0 01-2.268-3.613 5.318 5.318 0 01.24-2.164 4.3 4.3 0 011.875-2.762 1.595 1.595 0 011.098-.186 1.505 1.505 0 01.975.927 3.75 3.75 0 01.21 1.372 24.326 24.326 0 01-.862 7.369M471.153 288.534c-.13.115-.332.013-.47-.093a10.341 10.341 0 01-3.076-3.613 6.894 6.894 0 01-.57-4.655 2.654 2.654 0 011.168-1.758 2.195 2.195 0 012.53.574 4.566 4.566 0 011.034 2.542 20.77 20.77 0 01-.787 7.42M463.31 295.799a4.166 4.166 0 01-1.736-1.387 12.721 12.721 0 01-2.762-4.718 5.872 5.872 0 01.871-5.231 2.206 2.206 0 011.89-.945 2.237 2.237 0 011.358.906c1.427 1.781 1.473 4.282 1.246 6.553a37.793 37.793 0 01-.665 4.226M453.22 303.846a13.44 13.44 0 01-5.062-10.088c-.037-1.496.379-3.266 1.77-3.816a2.725 2.725 0 012.7.587 5.304 5.304 0 011.466 2.464c1.03 3.254.39 6.772-.257 10.123M478.447 281.713c2.242-.979 4.81-.711 7.23-.352.589.088 1.267.245 1.516.785a1.421 1.421 0 01-.375 1.463 3.65 3.65 0 01-2.476 1.138 6.53 6.53 0 01-2.733-.472 8.391 8.391 0 01-3.587-2.456"/><path class="cls-17" d="M484.578 275.121c2.242-.978 4.811-.711 7.231-.352.588.088 1.267.245 1.515.785a1.421 1.421 0 01-.375 1.463 3.65 3.65 0 01-2.476 1.138 6.529 6.529 0 01-2.733-.472 8.391 8.391 0 01-3.587-2.456M471.228 288.408a10.353 10.353 0 019.03.086 2.486 2.486 0 011.425 1.42 1.748 1.748 0 01-.534 1.637 3.224 3.224 0 01-1.603.771 7.112 7.112 0 01-4.07-.453 13.924 13.924 0 01-3.52-2.18 2.457 2.457 0 01-.986-1.285M463.404 295.333c2.727-.949 5.732-.396 8.523.341a4.217 4.217 0 012.804 1.66 2.751 2.751 0 01-1.293 3.527 5.105 5.105 0 01-4.058.066 11.618 11.618 0 01-5.873-5.022M453.713 303.193a10.102 10.102 0 016.48.326 30.077 30.077 0 015.818 3.104c.904.571 1.904 1.294 1.989 2.36a2.207 2.207 0 01-.953 1.871 4.4 4.4 0 01-2.043.73c-3.749.511-7.553-1.485-9.866-4.478a6.46 6.46 0 01-1.606-4.44M441.776 312.988c-.113.191-.407.057-.568-.095a12.215 12.215 0 01-3.622-10.617 5.462 5.462 0 01.709-2.101 5.768 5.768 0 012.719-2.02 1.464 1.464 0 01.786-.164 1.41 1.41 0 01.824.621 9.796 9.796 0 011.696 7.07 17.657 17.657 0 01-2.614 6.92"/><path class="cls-17" d="M441.089 312.949a9.687 9.687 0 015.216-.564 25.495 25.495 0 015.108 1.427 8.367 8.367 0 013.384 1.89 2.977 2.977 0 01.54 3.577c-.726 1.048-2.178 1.254-3.451 1.224a12.773 12.773 0 01-7.07-2.12 8.34 8.34 0 01-3.645-6.246"/><path class="cls-18" d="M358.847 344.046c15.058-7.367 25.477-21.408 33.518-35.843 14.585-26.186 23.383-56.489 18.501-85.904-.958-5.77-3.052-12.222-8.536-14.583a12.486 12.486 0 00-8.319-.308c-5.366 1.551-9.518 5.884-12.018 10.766s-3.571 10.322-4.571 15.691c-7.086 38.035-12.09 76.75-25.664 113.072"/><path class="cls-19" d="M356.233 344.663c11.65-5.415 24.987-22.022 31.46-33.111 11.743-20.116 20.45-41 17.44-64.071-.591-4.526-2.031-9.61-6.153-11.575a9.3 9.3 0 00-6.33-.426c-4.126 1.091-7.394 4.38-9.416 8.136s-2.97 7.978-3.86 12.147c-6.315 29.533-11.06 59.644-22.276 87.694"/><g class="cls-1"><path class="cls-7" d="M397.183 223.558c-1.245 9.102-2.545 18.198-4.115 27.253-1.557 8.98-3.38 17.92-5.676 26.748a182.234 182.234 0 01-7.884 23.973 174.826 174.826 0 01-11.23 22.392 155.292 155.292 0 01-14.134 20.126q-.96 1.15-1.945 2.28c-.139.16.098.392.238.231a151.37 151.37 0 0014.441-19.69 171.079 171.079 0 0019.947-45.892c2.438-8.874 4.37-17.873 6.006-26.918 1.639-9.058 2.982-18.164 4.244-27.278q.223-1.613.443-3.225c.029-.208-.307-.206-.335 0z"/></g><path class="cls-20" d="M364.722 342.413a218.557 218.557 0 0035.105 5.165c19.28 1.118 42.907.419 58.216-11.353 4.966-3.818 9.3-10.072 7.27-15.998-1.29-3.763-4.934-6.345-8.78-7.36s-7.91-.7-11.862-.246a178.667 178.667 0 00-79.95 29.792"/><path class="cls-19" d="M369.066 341.48a178.402 178.402 0 0027.237 3.741c14.961.793 33.3.244 45.198-8.42 3.86-2.81 7.233-7.408 5.666-11.756-.996-2.761-3.82-4.651-6.804-5.39a26.362 26.362 0 00-9.205-.164 144.12 144.12 0 00-62.092 21.99"/><g class="cls-1"><path class="cls-7" d="M449.497 325.608q-8.04 1.816-16.082 3.617-8.222 1.832-16.46 3.593-8.302 1.765-16.63 3.404-8.277 1.618-16.589 3.05-8.201 1.4-16.444 2.542-.997.137-1.995.269c-.237.031-.226.407.014.376q8.205-1.086 16.369-2.463 8.288-1.384 16.539-2.985 8.334-1.605 16.636-3.366 8.297-1.749 16.573-3.594 8.114-1.8 16.218-3.64l1.964-.444c.235-.053.122-.412-.113-.359z"/></g><path class="cls-17" d="M409.486 282.868a41.361 41.361 0 006.022-12.288c.766-2.297 1.46-4.618 2.17-6.933.774-2.533 1.54-5.068 2.268-7.615q2.076-7.262 3.772-14.627 1.7-7.389 3.014-14.86 1.312-7.468 2.233-14.998.111-.912.217-1.825c.05-.432-.617-.55-.668-.117q-.866 7.475-2.118 14.899-1.252 7.42-2.889 14.768-1.636 7.345-3.652 14.598a422.274 422.274 0 01-4.411 14.73 47.932 47.932 0 01-5.508 12.488q-.466.69-.974 1.352c-.265.345.258.775.524.428z"/><path class="cls-17" d="M428.366 211.86a9.139 9.139 0 01-.395-8.385c.501-1.057 1.458-2.125 2.617-1.968a2.198 2.198 0 011.693 1.742 5.313 5.313 0 01-.193 2.55 19.907 19.907 0 01-3.332 6.844M428.106 216.275a5.471 5.471 0 01-3.814-1.858 6.952 6.952 0 01-1.777-2.475 3.309 3.309 0 01.21-2.952.885.885 0 01.33-.323.86.86 0 01.444-.06 2.882 2.882 0 011.913 1.08 6.908 6.908 0 011.071 1.974 23.809 23.809 0 011.344 4.973M426.435 224.8a3.346 3.346 0 01-1.58-.035 6.893 6.893 0 01-3.941-1.632 5.318 5.318 0 01-1.058-1.904 4.3 4.3 0 01-.07-3.338 1.595 1.595 0 01.788-.787 1.505 1.505 0 011.33.191 3.75 3.75 0 01.967.997 24.326 24.326 0 013.564 6.507M424.911 234.73c-.04.169-.263.202-.436.196a10.341 10.341 0 01-4.6-1.165 6.895 6.895 0 01-3.161-3.466 2.654 2.654 0 01-.065-2.11 2.195 2.195 0 012.394-.996 4.566 4.566 0 012.316 1.474 20.77 20.77 0 013.654 6.505M422.723 245.194a4.167 4.167 0 01-2.218-.126 12.722 12.722 0 01-4.984-2.248 5.872 5.872 0 01-2.318-4.77 2.206 2.206 0 01.993-1.864 2.237 2.237 0 011.632-.048c2.195.627 3.68 2.64 4.81 4.622a37.792 37.792 0 011.904 3.83M419.155 257.597a13.44 13.44 0 01-9.968-5.295c-.896-1.197-1.582-2.881-.766-4.135a2.725 2.725 0 012.54-1.085 5.304 5.304 0 012.623 1.16c2.724 2.057 4.24 5.295 5.651 8.402M426.909 224.945c1.261-2.096 3.51-3.366 5.692-4.474a1.84 1.84 0 011.69-.237 1.421 1.421 0 01.54 1.41 3.651 3.651 0 01-1.36 2.361 6.53 6.53 0 01-2.5 1.197 8.391 8.391 0 01-4.347.075"/><path class="cls-17" d="M428.091 216.02c1.262-2.096 3.511-3.365 5.692-4.473a1.84 1.84 0 011.69-.237 1.421 1.421 0 01.541 1.41 3.65 3.65 0 01-1.36 2.36 6.529 6.529 0 01-2.501 1.198 8.391 8.391 0 01-4.347.074M424.9 234.584a10.353 10.353 0 017.413-5.16 2.486 2.486 0 011.983.335 1.748 1.748 0 01.513 1.642 3.224 3.224 0 01-.861 1.558 7.112 7.112 0 01-3.582 1.987 13.924 13.924 0 01-4.131.26 2.457 2.457 0 01-1.549-.477M422.53 244.759c1.674-2.352 4.444-3.642 7.147-4.657a4.217 4.217 0 013.247-.27 2.751 2.751 0 01.988 3.625 5.105 5.105 0 01-3.27 2.404 11.618 11.618 0 01-7.697-.695M419.18 256.78a10.102 10.102 0 015.472-3.487 30.076 30.076 0 016.54-.838c1.068-.058 2.302-.047 2.988.773a2.207 2.207 0 01.307 2.077 4.4 4.4 0 01-1.243 1.778c-2.76 2.587-7.018 3.162-10.637 2.061a6.46 6.46 0 01-3.88-2.69M415.118 271.676c.019.222-.298.283-.518.252a12.215 12.215 0 01-9.1-6.56 5.462 5.462 0 01-.639-2.123 5.768 5.768 0 011.047-3.22 1.464 1.464 0 01.547-.59 1.41 1.41 0 011.031.03 9.796 9.796 0 015.476 4.782 17.658 17.658 0 011.875 7.155"/><path class="cls-17" d="M414.535 272.042a9.688 9.688 0 013.926-3.48 25.494 25.494 0 014.991-1.793 8.367 8.367 0 013.853-.419 2.977 2.977 0 012.512 2.605c.015 1.273-1.05 2.282-2.105 2.996a12.773 12.773 0 01-6.992 2.365 8.34 8.34 0 01-6.588-2.983"/><path class="cls-21" d="M360.11 340.841c21.883-1.143 46.297-14.132 63.828-27.28 11.54-8.654 22.937-17.836 31.458-29.473a82.8 82.8 0 0014.252-32.15c1.557-7.586 1.289-17.008-5.254-21.15-3.533-2.236-8.147-2.243-12.087-.844s-7.307 4.052-10.36 6.908c-8.705 8.143-15.38 18.168-22.16 27.972-17.659 25.527-39.58 52.362-59.677 76.017"/><path class="cls-19" d="M366.013 337.755c16.903-.841 35.758-10.407 49.299-20.09 8.912-6.373 17.715-13.135 24.297-21.705a59.623 59.623 0 0011.007-23.677c1.203-5.587.996-12.525-4.058-15.576a11.34 11.34 0 00-9.335-.621 23.792 23.792 0 00-8.002 5.087c-6.723 5.997-11.878 13.38-17.115 20.6-13.639 18.8-30.57 38.561-46.093 55.982"/><g class="cls-1"><path class="cls-7" d="M455.884 249.096L436.648 272.6c-5.691 6.955-11.34 13.947-17.15 20.802-5.349 6.312-10.854 12.5-16.716 18.343a152.549 152.549 0 01-18.621 16.015 100.453 100.453 0 01-21.293 11.836q-1.395.555-2.808 1.063c-.226.081-.129.445.1.363a97.542 97.542 0 0021.564-11.106 142.946 142.946 0 0018.884-15.515c5.995-5.77 11.604-11.929 17.026-18.236 5.72-6.655 11.242-13.477 16.8-20.268l19.297-23.58 2.42-2.957c.151-.185-.113-.453-.267-.265z"/></g><path class="cls-17" d="M269.915 291.143a41.362 41.362 0 00-4.708-12.849c-1.129-2.142-2.324-4.25-3.505-6.363a430.032 430.032 0 00-3.93-6.906q-3.808-6.523-7.953-12.842-4.159-6.34-8.646-12.457-4.484-6.113-9.285-11.987-.582-.711-1.168-1.42c-.277-.334-.824.066-.546.402q4.799 5.797 9.293 11.836 4.492 6.037 8.666 12.302 4.173 6.263 8.016 12.736a422.27 422.27 0 017.585 13.376 47.932 47.932 0 015.207 12.615q.177.815.302 1.64c.066.429.739.35.672-.083z"/><path class="cls-17" d="M231.7 228.387a9.139 9.139 0 01-6.329-5.515c-.416-1.093-.525-2.522.39-3.25a2.198 2.198 0 012.428-.018 5.313 5.313 0 011.708 1.903 19.907 19.907 0 012.638 7.141M234.708 231.63a5.471 5.471 0 01-3.98 1.469 6.952 6.952 0 01-3.017-.43 3.309 3.309 0 01-1.985-2.193.885.885 0 01-.007-.461.86.86 0 01.265-.363 2.882 2.882 0 012.104-.634 6.908 6.908 0 012.166.592 23.81 23.81 0 014.52 2.47M239.707 238.734a3.346 3.346 0 01-1.117 1.117 6.893 6.893 0 01-3.905 1.716 5.318 5.318 0 01-2.107-.553 4.3 4.3 0 01-2.458-2.258 1.595 1.595 0 01-.024-1.113 1.505 1.505 0 011.06-.83 3.75 3.75 0 011.387-.007 24.326 24.326 0 017.164 1.928M245.824 246.703c.095.146-.035.33-.16.451a10.341 10.341 0 01-4.023 2.516 6.894 6.894 0 01-4.69-.115 2.654 2.654 0 01-1.568-1.412 2.195 2.195 0 01.937-2.419 4.566 4.566 0 012.666-.652 20.77 20.77 0 017.226 1.861M251.867 255.523a4.167 4.167 0 01-1.626 1.514 12.722 12.722 0 01-5.07 2.044 5.872 5.872 0 01-5.048-1.625 2.206 2.206 0 01-.66-2.008 2.237 2.237 0 011.095-1.211c1.97-1.151 4.452-.832 6.665-.276a37.792 37.792 0 014.084 1.275M258.356 266.68a13.44 13.44 0 01-10.72 3.534c-1.484-.181-3.175-.85-3.516-2.307a2.725 2.725 0 01.974-2.585 5.304 5.304 0 012.652-1.092c3.37-.544 6.756.602 9.977 1.732M240.14 238.492c-.64-2.361-.001-4.863.708-7.205.172-.569.427-1.217.997-1.384a1.421 1.421 0 011.392.584 3.65 3.65 0 01.765 2.616 6.53 6.53 0 01-.866 2.634 8.391 8.391 0 01-2.953 3.19"/><path class="cls-17" d="M234.514 231.464c-.641-2.36-.002-4.863.707-7.205.172-.568.427-1.217.998-1.384a1.421 1.421 0 011.392.584 3.65 3.65 0 01.765 2.616 6.529 6.529 0 01-.866 2.635 8.391 8.391 0 01-2.954 3.19M245.71 246.61a10.353 10.353 0 011.404-8.921 2.486 2.486 0 011.613-1.201 1.748 1.748 0 011.54.766 3.224 3.224 0 01.53 1.699 7.112 7.112 0 01-1.043 3.96 13.924 13.924 0 01-2.67 3.164 2.457 2.457 0 01-1.415.788M251.42 255.36c-.541-2.835.444-5.727 1.58-8.381a4.217 4.217 0 012.052-2.532 2.751 2.751 0 013.301 1.794 5.105 5.105 0 01-.527 4.024 11.618 11.618 0 01-5.825 5.078M257.781 266.096a10.102 10.102 0 011.269-6.364 30.076 30.076 0 013.92-5.303c.696-.81 1.558-1.694 2.624-1.623a2.207 2.207 0 011.713 1.216 4.4 4.4 0 01.424 2.128c-.042 3.783-2.572 7.255-5.87 9.107a6.46 6.46 0 01-4.628.94M265.73 279.334c.173.14-.003.41-.177.548a12.215 12.215 0 01-11.032 2.034 5.462 5.462 0 01-1.975-1.008 5.768 5.768 0 01-1.602-2.984 1.464 1.464 0 01-.047-.802 1.41 1.41 0 01.735-.725 9.796 9.796 0 017.24-.646 17.658 17.658 0 016.465 3.596"/><path class="cls-17" d="M265.59 280.008a9.687 9.687 0 01.204-5.242 25.494 25.494 0 012.157-4.845 8.367 8.367 0 012.363-3.072 2.977 2.977 0 013.618-.012c.93.87.923 2.337.708 3.592a12.773 12.773 0 01-3.129 6.686 8.34 8.34 0 01-6.712 2.694"/><path class="cls-22" d="M319.425 219.105c13.51.574 28.13 4.65 38.018 13.873a6.963 6.963 0 012.026 2.72c.534 1.584-.014 3.305-.52 4.898a99.916 99.916 0 00-.891 57.097c1.378 4.863 3.138 9.668 3.612 14.7s-.526 10.479-4.003 14.147a19 19 0 01-5.313 3.731c-10.815 5.466-23.514 5.263-35.622 4.76-7.465-.31-15.003-.7-22.19-2.742s-14.088-5.903-18.456-11.965c-4.505-6.254-5.914-14.198-6.487-21.885-1.301-17.459 1.068-34.964 1.396-52.468.096-5.09-.011-10.337-1.997-15.025 9.225-6.378 20.25-10.255 31.25-12.443a12.128 12.128 0 009.604 4.778c3.928.2 6.903-1.287 9.573-4.176"/><path class="cls-23" d="M355.948 310.196c-.438-5.032 3.136-10.854 1.863-15.717-3.236-12.358-9.336-24.377-8.024-37.142a14.502 14.502 0 00-6.717 5.97 16.408 16.408 0 00-1.507 7.428c-.057 5.1.894 10.158 1.097 15.255.202 5.097-.438 10.47-3.307 14.642-3.313 4.817-9.026 7.248-14.597 8.74a110.688 110.688 0 01-11.402 2.297c-4.402.694-8.88 1.277-13.298.71-4.419-.57-8.83-2.41-11.735-5.863-4.603-5.473-4.465-13.421-5.293-20.59a64.42 64.42 0 00-6.963-22.555c-1.103-2.094-2.398-4.204-4.389-5.432l-.017-.007c-.684 12.782-8.083 26.204-7.206 38.955.53 7.687 8.301 14.986 12.462 21.24 4.033 6.062 10.406 9.923 17.043 11.965 6.637 2.042 13.598 2.432 20.492 2.742 11.18.503 22.908.707 32.895-4.76a17.612 17.612 0 004.906-3.73c3.21-3.67 4.135-9.116 3.697-14.148z"/><path class="cls-22" d="M274.622 227.475c4.173 18.55.579 40.44-4.055 58.88-1.377 5.479-1.087 11.483.877 14.27 2.033 2.885 5.54 4.607 8.745 6.084 7.448 3.431 12.622 7.482 18.308 13.392a21.453 21.453 0 015.351 8.174c.984 3.136.698 6.82-1.397 9.352-2.003 2.42-5.314 3.422-8.456 3.419a41.252 41.252 0 01-9.266-1.59 97.271 97.271 0 00-15.59-2.337c-4.542-.308-9.164-.305-13.533-1.585a25.994 25.994 0 01-14.83-11.836 31.042 31.042 0 01-3.866-18.719 64.748 64.748 0 012.127-10.187c3.73-13.89 8.875-26.052 13.588-39.641a72.107 72.107 0 018.871-16.644c3.398-4.806 7.325-10.04 13.126-11.032"/><path class="cls-7" d="M276.144 262.801c2.515-11.463 1.622-24.142-1.069-35.45-.14-.589-1.046-.34-.906.25a87.995 87.995 0 012.256 24.64 62.457 62.457 0 01-1.187 10.31c-.13.59.776.842.906.25z"/><path class="cls-11" d="M310.33 328.4s-12.42-3.083-17.067-.422-11.701 6.547-11.49 11.49l-.005 2.028s33.293.972 35.996-2.027"/><path class="cls-22" d="M347.429 226.08c6.094.705 12.756 7.805 16.971 13.943s7.084 13.08 9.92 19.965l15.93 38.667a63.443 63.443 0 014.103 12.272 31.758 31.758 0 01.176 10.706 17.284 17.284 0 01-3.156 8.124c-2.568 3.266-6.621 4.928-10.504 6.404-8.195 3.115-16.601 6.035-25.348 6.639a98.415 98.415 0 01-10.359-.014c-9.536-.348-19.113-.7-28.497-2.44a4.351 4.351 0 01-1.918-.69 4.451 4.451 0 01-1.174-1.754l-2.83-6.188a7.517 7.517 0 01-.966-3.63c.136-1.694 1.383-3.07 2.63-4.224a41.72 41.72 0 0111.226-7.42c8.457-3.795 18.113-4.743 26.057-9.517a12.3 12.3 0 002.67-2.033c2.928-3.109 2.754-8.115 1.112-12.058s-2.793-7.705-4.406-11.66c-3.587-8.794-5.38-14.533-5.576-22.05-.28-10.703.522-22.896 3.939-33.042"/><path class="cls-7" d="M315.212 321.724a26.412 26.412 0 012.735 4.96 41.739 41.739 0 013.433 14.046c.043.6.983.605.94 0a43.16 43.16 0 00-3.392-14.133 27.062 27.062 0 00-2.904-5.347c-.356-.482-1.172-.013-.812.474zM343.54 263.306c-.781-12.262.162-25.504 4.342-37.101.206-.57-.702-.816-.906-.25-4.205 11.664-5.162 25.02-4.376 37.351.038.601.978.605.94 0z"/><rect class="cls-24" x="216.631" y="340.645" width="151.427" height="3.767" rx=".501"/><path class="cls-24" d="M283.08 344.412H153.889l-6.241-89.697h126.603l8.829 89.697z"/><path class="cls-25" d="M278.687 344.412H149.496l-6.241-89.697h126.603l8.829 89.697z"/><circle class="cls-26" cx="210.971" cy="299.564" r="7.715"/><path class="cls-16" d="M144.339 270.22l5.157 74.117h129.19l-1.724-17.519c-67.998-8.791-114.835-41.96-132.623-56.598z"/><path class="cls-17" d="M231.381 45.879h43.922v2.965h-43.922zM231.381 53.537h34.762v2.965h-34.762zM231.381 61.196h34.762v2.965h-34.762zM231.381 68.855h25.932v2.965h-25.932zM222.216 96.209h29.051v1.961h-29.051zM222.216 101.274h22.992v1.961h-22.992zM222.216 106.34h22.992v1.961h-22.992zM222.216 111.405h17.152v1.961h-17.152z"/><rect class="cls-27" x="39.972" y="344.412" width="443.935" height="8.11" rx="3.029"/></svg>